  0
SECTION
  2
HEADER
  9
$ACADVER
  1
AC1015
  9
$ACADMAINTVER
 70
6
  9
$DWGCODEPAGE
  3
ANSI_1252
  9
$INSBASE
 10
0.0
 20
0.0
 30
0.0
  9
$EXTMIN
 10
1e+20
 20
1e+20
 30
1e+20
  9
$EXTMAX
 10
-1e+20
 20
-1e+20
 30
-1e+20
  9
$LIMMIN
 10
0.0
 20
0.0
  9
$LIMMAX
 10
420.0
 20
297.0
  9
$ORTHOMODE
 70
0
  9
$REGENMODE
 70
1
  9
$FILLMODE
 70
1
  9
$QTEXTMODE
 70
0
  9
$MIRRTEXT
 70
1
  9
$LTSCALE
 40
1.0
  9
$ATTMODE
 70
1
  9
$TEXTSIZE
 40
2.5
  9
$TRACEWID
 40
1.0
  9
$TEXTSTYLE
  7
Standard
  9
$CLAYER
  8
0
  9
$CELTYPE
  6
ByLayer
  9
$CECOLOR
 62
256
  9
$CELTSCALE
 40
1.0
  9
$DISPSILH
 70
0
  9
$DIMSCALE
 40
1.0
  9
$DIMASZ
 40
2.5
  9
$DIMEXO
 40
0.625
  9
$DIMDLI
 40
3.75
  9
$DIMRND
 40
0.0
  9
$DIMDLE
 40
0.0
  9
$DIMEXE
 40
1.25
  9
$DIMTP
 40
0.0
  9
$DIMTM
 40
0.0
  9
$DIMTXT
 40
2.5
  9
$DIMCEN
 40
2.5
  9
$DIMTSZ
 40
0.0
  9
$DIMTOL
 70
0
  9
$DIMLIM
 70
0
  9
$DIMTIH
 70
0
  9
$DIMTOH
 70
0
  9
$DIMSE1
 70
0
  9
$DIMSE2
 70
0
  9
$DIMTAD
 70
1
  9
$DIMZIN
 70
8
  9
$DIMBLK
  1

  9
$DIMASO
 70
1
  9
$DIMSHO
 70
1
  9
$DIMPOST
  1

  9
$DIMAPOST
  1

  9
$DIMALT
 70
0
  9
$DIMALTD
 70
3
  9
$DIMALTF
 40
0.03937007874
  9
$DIMLFAC
 40
1.0
  9
$DIMTOFL
 70
1
  9
$DIMTVP
 40
0.0
  9
$DIMTIX
 70
0
  9
$DIMSOXD
 70
0
  9
$DIMSAH
 70
0
  9
$DIMBLK1
  1

  9
$DIMBLK2
  1

  9
$DIMSTYLE
  2
ISO-25
  9
$DIMCLRD
 70
0
  9
$DIMCLRE
 70
0
  9
$DIMCLRT
 70
0
  9
$DIMTFAC
 40
1.0
  9
$DIMGAP
 40
0.625
  9
$DIMJUST
 70
0
  9
$DIMSD1
 70
0
  9
$DIMSD2
 70
0
  9
$DIMTOLJ
 70
0
  9
$DIMTZIN
 70
8
  9
$DIMALTZ
 70
0
  9
$DIMALTTZ
 70
0
  9
$DIMUPT
 70
0
  9
$DIMDEC
 70
2
  9
$DIMTDEC
 70
2
  9
$DIMALTU
 70
2
  9
$DIMALTTD
 70
3
  9
$DIMTXSTY
  7
Standard
  9
$DIMAUNIT
 70
0
  9
$DIMADEC
 70
0
  9
$DIMALTRND
 40
0.0
  9
$DIMAZIN
 70
0
  9
$DIMDSEP
 70
44
  9
$DIMATFIT
 70
3
  9
$DIMFRAC
 70
0
  9
$DIMLDRBLK
  1

  9
$DIMLUNIT
 70
2
  9
$DIMLWD
 70
-2
  9
$DIMLWE
 70
-2
  9
$DIMTMOVE
 70
0
  9
$LUNITS
 70
2
  9
$LUPREC
 70
4
  9
$SKETCHINC
 40
1.0
  9
$FILLETRAD
 40
10.0
  9
$AUNITS
 70
0
  9
$AUPREC
 70
2
  9
$MENU
  1
.
  9
$ELEVATION
 40
0.0
  9
$PELEVATION
 40
0.0
  9
$THICKNESS
 40
0.0
  9
$LIMCHECK
 70
0
  9
$CHAMFERA
 40
0.0
  9
$CHAMFERB
 40
0.0
  9
$CHAMFERC
 40
0.0
  9
$CHAMFERD
 40
0.0
  9
$SKPOLY
 70
0
  9
$TDCREATE
 40
2461139.9471527776
  9
$TDUCREATE
 40
2458532.153996898
  9
$TDUPDATE
 40
2461139.9471527776
  9
$TDUUPDATE
 40
2458532.1544311
  9
$TDINDWG
 40
0.0
  9
$TDUSRTIMER
 40
0.0
  9
$USRTIMER
 70
1
  9
$ANGBASE
 50
0.0
  9
$ANGDIR
 70
0
  9
$PDMODE
 70
0
  9
$PDSIZE
 40
0.0
  9
$PLINEWID
 40
0.0
  9
$SPLFRAME
 70
0
  9
$SPLINETYPE
 70
6
  9
$SPLINESEGS
 70
8
  9
$HANDSEED
  5
64
  9
$SURFTAB1
 70
6
  9
$SURFTAB2
 70
6
  9
$SURFTYPE
 70
6
  9
$SURFU
 70
6
  9
$SURFV
 70
6
  9
$UCSBASE
  2

  9
$UCSNAME
  2

  9
$UCSORG
 10
0.0
 20
0.0
 30
0.0
  9
$UCSXDIR
 10
1.0
 20
0.0
 30
0.0
  9
$UCSYDIR
 10
0.0
 20
1.0
 30
0.0
  9
$UCSORTHOREF
  2

  9
$UCSORTHOVIEW
 70
0
  9
$UCSORGTOP
 10
0.0
 20
0.0
 30
0.0
  9
$UCSORGBOTTOM
 10
0.0
 20
0.0
 30
0.0
  9
$UCSORGLEFT
 10
0.0
 20
0.0
 30
0.0
  9
$UCSORGRIGHT
 10
0.0
 20
0.0
 30
0.0
  9
$UCSORGFRONT
 10
0.0
 20
0.0
 30
0.0
  9
$UCSORGBACK
 10
0.0
 20
0.0
 30
0.0
  9
$PUCSBASE
  2

  9
$PUCSNAME
  2

  9
$PUCSORG
 10
0.0
 20
0.0
 30
0.0
  9
$PUCSXDIR
 10
1.0
 20
0.0
 30
0.0
  9
$PUCSYDIR
 10
0.0
 20
1.0
 30
0.0
  9
$PUCSORTHOREF
  2

  9
$PUCSORTHOVIEW
 70
0
  9
$PUCSORGTOP
 10
0.0
 20
0.0
 30
0.0
  9
$PUCSORGBOTTOM
 10
0.0
 20
0.0
 30
0.0
  9
$PUCSORGLEFT
 10
0.0
 20
0.0
 30
0.0
  9
$PUCSORGRIGHT
 10
0.0
 20
0.0
 30
0.0
  9
$PUCSORGFRONT
 10
0.0
 20
0.0
 30
0.0
  9
$PUCSORGBACK
 10
0.0
 20
0.0
 30
0.0
  9
$USERI1
 70
0
  9
$USERI2
 70
0
  9
$USERI3
 70
0
  9
$USERI4
 70
0
  9
$USERI5
 70
0
  9
$USERR1
 40
0.0
  9
$USERR2
 40
0.0
  9
$USERR3
 40
0.0
  9
$USERR4
 40
0.0
  9
$USERR5
 40
0.0
  9
$WORLDVIEW
 70
1
  9
$SHADEDGE
 70
3
  9
$SHADEDIF
 70
70
  9
$TILEMODE
 70
1
  9
$MAXACTVP
 70
64
  9
$PINSBASE
 10
0.0
 20
0.0
 30
0.0
  9
$PLIMCHECK
 70
0
  9
$PEXTMIN
 10
1e+20
 20
1e+20
 30
1e+20
  9
$PEXTMAX
 10
-1e+20
 20
-1e+20
 30
-1e+20
  9
$PLIMMIN
 10
0.0
 20
0.0
  9
$PLIMMAX
 10
420.0
 20
297.0
  9
$UNITMODE
 70
0
  9
$VISRETAIN
 70
1
  9
$PLINEGEN
 70
0
  9
$PSLTSCALE
 70
1
  9
$TREEDEPTH
 70
3020
  9
$CMLSTYLE
  2
Standard
  9
$CMLJUST
 70
0
  9
$CMLSCALE
 40
20.0
  9
$PROXYGRAPHICS
 70
1
  9
$MEASUREMENT
 70
1
  9
$CELWEIGHT
370
-1
  9
$ENDCAPS
280
0
  9
$JOINSTYLE
280
0
  9
$LWDISPLAY
290
0
  9
$INSUNITS
 70
6
  9
$HYPERLINKBASE
  1

  9
$STYLESHEET
  1

  9
$XEDIT
290
1
  9
$CEPSNTYPE
380
0
  9
$PSTYLEMODE
290
1
  9
$FINGERPRINTGUID
  2
{DB6F170C-56EF-4DEC-9DCA-D061D3467CAA}
  9
$VERSIONGUID
  2
{1C75BCF2-FB40-4FE0-B2C8-2ECCF164DBEE}
  9
$EXTNAMES
290
1
  9
$PSVPSCALE
 40
0.0
  9
$OLESTARTUP
290
0
  0
ENDSEC
  0
SECTION
  2
CLASSES
  0
CLASS
  1
ACDBDICTIONARYWDFLT
  2
AcDbDictionaryWithDefault
  3
ObjectDBX Classes
 90
0
280
0
281
0
  0
CLASS
  1
SUN
  2
AcDbSun
  3
SCENEOE
 90
1153
280
0
281
0
  0
CLASS
  1
VISUALSTYLE
  2
AcDbVisualStyle
  3
ObjectDBX Classes
 90
4095
280
0
281
0
  0
CLASS
  1
MATERIAL
  2
AcDbMaterial
  3
ObjectDBX Classes
 90
1153
280
0
281
0
  0
CLASS
  1
SCALE
  2
AcDbScale
  3
ObjectDBX Classes
 90
1153
280
0
281
0
  0
CLASS
  1
TABLESTYLE
  2
AcDbTableStyle
  3
ObjectDBX Classes
 90
4095
280
0
281
0
  0
CLASS
  1
MLEADERSTYLE
  2
AcDbMLeaderStyle
  3
ACDB_MLEADERSTYLE_CLASS
 90
4095
280
0
281
0
  0
CLASS
  1
DICTIONARYVAR
  2
AcDbDictionaryVar
  3
ObjectDBX Classes
 90
0
280
0
281
0
  0
CLASS
  1
CELLSTYLEMAP
  2
AcDbCellStyleMap
  3
ObjectDBX Classes
 90
1152
280
0
281
0
  0
CLASS
  1
MENTALRAYRENDERSETTINGS
  2
AcDbMentalRayRenderSettings
  3
SCENEOE
 90
1024
280
0
281
0
  0
CLASS
  1
ACDBDETAILVIEWSTYLE
  2
AcDbDetailViewStyle
  3
ObjectDBX Classes
 90
1025
280
0
281
0
  0
CLASS
  1
ACDBSECTIONVIEWSTYLE
  2
AcDbSectionViewStyle
  3
ObjectDBX Classes
 90
1025
280
0
281
0
  0
CLASS
  1
RASTERVARIABLES
  2
AcDbRasterVariables
  3
ISM
 90
0
280
0
281
0
  0
CLASS
  1
ACDBPLACEHOLDER
  2
AcDbPlaceHolder
  3
ObjectDBX Classes
 90
0
280
0
281
0
  0
CLASS
  1
LAYOUT
  2
AcDbLayout
  3
ObjectDBX Classes
 90
0
280
0
281
0
  0
ENDSEC
  0
SECTION
  2
TABLES
  0
TABLE
  2
VPORT
  5
8
330
0
100
AcDbSymbolTable
 70
1
  0
VPORT
  5
23
330
8
100
AcDbSymbolTableRecord
100
AcDbViewportTableRecord
  2
*Active
 70
0
 10
0.0
 20
0.0
 11
1.0
 21
1.0
 12
0.0
 22
0.0
 13
0.0
 23
0.0
 14
0.5
 24
0.5
 15
0.5
 25
0.5
 16
0.0
 26
0.0
 36
1.0
 17
0.0
 27
0.0
 37
0.0
 40
1000.0
 41
1.34
 42
50.0
 43
0.0
 44
0.0
 50
0.0
 51
0.0
 71
0
 72
1000
 73
1
 74
3
 75
0
 76
0
 77
0
 78
0
281
0
 65
0
146
0.0
  0
ENDTAB
  0
TABLE
  2
LTYPE
  5
2
330
0
100
AcDbSymbolTable
 70
3
  0
LTYPE
  5
24
330
2
100
AcDbSymbolTableRecord
100
AcDbLinetypeTableRecord
  2
ByBlock
 70
0
  3

 72
65
 73
0
 40
0.0
  0
LTYPE
  5
25
330
2
100
AcDbSymbolTableRecord
100
AcDbLinetypeTableRecord
  2
ByLayer
 70
0
  3

 72
65
 73
0
 40
0.0
  0
LTYPE
  5
26
330
2
100
AcDbSymbolTableRecord
100
AcDbLinetypeTableRecord
  2
Continuous
 70
0
  3

 72
65
 73
0
 40
0.0
  0
ENDTAB
  0
TABLE
  2
LAYER
  5
1
330
0
100
AcDbSymbolTable
 70
3
  0
LAYER
  5
27
330
1
100
AcDbSymbolTableRecord
100
AcDbLayerTableRecord
  2
0
 70
0
 62
7
  6
Continuous
370
-3
390
13
  0
LAYER
  5
28
330
1
100
AcDbSymbolTableRecord
100
AcDbLayerTableRecord
  2
Defpoints
 70
0
 62
7
  6
Continuous
290
0
370
-3
390
13
  0
LAYER
  5
2F
330
1
100
AcDbSymbolTableRecord
100
AcDbLayerTableRecord
  2
FORMAT
 70
0
 62
7
  6
Continuous
370
-3
390
13
  0
ENDTAB
  0
TABLE
  2
STYLE
  5
5
330
0
100
AcDbSymbolTable
 70
1
  0
STYLE
  5
29
330
5
100
AcDbSymbolTableRecord
100
AcDbTextStyleTableRecord
  2
Standard
 70
0
 40
0.0
 41
1.0
 50
0.0
 71
0
 42
2.5
  3
txt
  4

  0
ENDTAB
  0
TABLE
  2
VIEW
  5
7
330
0
100
AcDbSymbolTable
 70
0
  0
ENDTAB
  0
TABLE
  2
UCS
  5
6
330
0
100
AcDbSymbolTable
 70
0
  0
ENDTAB
  0
TABLE
  2
APPID
  5
3
330
0
100
AcDbSymbolTable
 70
3
  0
APPID
  5
2A
330
3
100
AcDbSymbolTableRecord
100
AcDbRegAppTableRecord
  2
ACAD
 70
0
  0
APPID
  5
61
330
3
100
AcDbSymbolTableRecord
100
AcDbRegAppTableRecord
  2
HATCHBACKGROUNDCOLOR
 70
0
  0
APPID
  5
62
330
3
100
AcDbSymbolTableRecord
100
AcDbRegAppTableRecord
  2
EZDXF
 70
0
  0
ENDTAB
  0
TABLE
  2
DIMSTYLE
  5
4
330
0
100
AcDbSymbolTable
 70
1
100
AcDbDimStyleTable
  0
DIMSTYLE
105
2B
330
4
100
AcDbSymbolTableRecord
100
AcDbDimStyleTableRecord
  2
Standard
 70
0
  3

  4

 40
1.0
 41
2.5
 42
0.625
 43
3.75
 44
1.25
 45
0.0
 46
0.0
 47
0.0
 48
0.0
140
2.5
141
2.5
142
0.0
143
0.03937007874
144
1.0
145
0.0
146
1.0
147
0.625
148
0.0
 71
0
 72
0
 73
0
 74
0
 75
0
 76
0
 77
1
 78
8
 79
3
170
0
171
3
172
1
173
0
174
0
175
0
176
0
177
0
178
0
179
2
271
2
272
2
273
2
274
3
275
0
276
0
277
2
278
44
279
0
280
0
281
0
282
0
283
0
284
8
285
0
286
0
288
0
289
3
371
-2
372
-2
  0
ENDTAB
  0
TABLE
  2
BLOCK_RECORD
  5
9
330
0
100
AcDbSymbolTable
 70
6
  0
BLOCK_RECORD
  5
17
330
9
100
AcDbSymbolTableRecord
100
AcDbBlockTableRecord
  2
*Model_Space
340
1A
  0
BLOCK_RECORD
  5
1B
330
9
100
AcDbSymbolTableRecord
100
AcDbBlockTableRecord
  2
*Paper_Space
340
1E
  0
BLOCK_RECORD
  5
39
330
9
100
AcDbSymbolTableRecord
100
AcDbBlockTableRecord
  2
*D1
340
0
  0
BLOCK_RECORD
  5
43
330
9
100
AcDbSymbolTableRecord
100
AcDbBlockTableRecord
  2
*D2
340
0
  0
BLOCK_RECORD
  5
4D
330
9
100
AcDbSymbolTableRecord
100
AcDbBlockTableRecord
  2
*D3
340
0
  0
BLOCK_RECORD
  5
57
330
9
100
AcDbSymbolTableRecord
100
AcDbBlockTableRecord
  2
*D4
340
0
  0
ENDTAB
  0
ENDSEC
  0
SECTION
  2
BLOCKS
  0
BLOCK
  5
18
330
17
100
AcDbEntity
  8
0
100
AcDbBlockBegin
  2
*Model_Space
 70
0
 10
0.0
 20
0.0
 30
0.0
  3
*Model_Space
  1

  0
ENDBLK
  5
19
330
17
100
AcDbEntity
  8
0
100
AcDbBlockEnd
  0
BLOCK
  5
1C
330
1B
100
AcDbEntity
  8
0
100
AcDbBlockBegin
  2
*Paper_Space
 70
0
 10
0.0
 20
0.0
 30
0.0
  3
*Paper_Space
  1

  0
ENDBLK
  5
1D
330
1B
100
AcDbEntity
  8
0
100
AcDbBlockEnd
  0
BLOCK
  5
3A
330
39
100
AcDbEntity
  8
0
100
AcDbBlockBegin
  2
*D1
 70
1
 10
0.0
 20
0.0
 30
0.0
  3
*D1
  1

  0
SOLID
  5
3C
330
39
100
AcDbEntity
  8
0
  6
Continuous
 62
7
370
18
100
AcDbTrace
 10
153.6902303805
 20
249.9624811556
 30
0.0
 11
150.3882303805
 21
250.4704811556
 31
0.0
 12
150.3882303805
 22
249.4544811556
 32
0.0
 13
150.3882303805
 23
249.4544811556
 33
0.0
  0
SOLID
  5
3D
330
39
100
AcDbEntity
  8
0
  6
Continuous
 62
7
370
18
100
AcDbTrace
 10
53.6902303805
 20
249.9624811556
 30
0.0
 11
56.9922303805
 21
249.4544811556
 31
0.0
 12
56.9922303805
 22
250.4704811556
 32
0.0
 13
56.9922303805
 23
250.4704811556
 33
0.0
  0
LINE
  5
3E
330
39
100
AcDbEntity
  8
0
  6
Continuous
 62
7
370
18
100
AcDbLine
 10
153.6902303805
 20
266.9624811556
 30
0.0
 11
153.6902303805
 21
248.9624811556
 31
0.0
  0
LINE
  5
3F
330
39
100
AcDbEntity
  8
0
  6
Continuous
 62
7
370
18
100
AcDbLine
 10
53.6902303805
 20
258.9624811556
 30
0.0
 11
53.6902303805
 21
248.9624811556
 31
0.0
  0
LINE
  5
40
330
39
100
AcDbEntity
  8
0
  6
Continuous
 62
7
370
18
100
AcDbLine
 10
153.6902303805
 20
249.9624811556
 30
0.0
 11
53.6902303805
 21
249.9624811556
 31
0.0
  0
MTEXT
  5
41
330
39
100
AcDbEntity
  8
0
  6
Continuous
 62
7
370
18
100
AcDbMText
 10
99.8110637067
 20
254.4742180702
 30
0.0
 40
3.5
 41
0.0
 71
1
  1
100
  7
SLDTEXTSTYLE0
  0
ENDBLK
  5
3B
330
39
100
AcDbEntity
  8
0
100
AcDbBlockEnd
  0
BLOCK
  5
44
330
43
100
AcDbEntity
  8
0
100
AcDbBlockBegin
  2
*D2
 70
1
 10
0.0
 20
0.0
 30
0.0
  3
*D2
  1

  0
SOLID
  5
46
330
43
100
AcDbEntity
  8
0
  6
Continuous
 62
7
370
18
100
AcDbTrace
 10
128.6902303805
 20
277.9624811556
 30
0.0
 11
125.3882303805
 21
278.4704811556
 31
0.0
 12
125.3882303805
 22
277.4544811556
 32
0.0
 13
125.3882303805
 23
277.4544811556
 33
0.0
  0
SOLID
  5
47
330
43
100
AcDbEntity
  8
0
  6
Continuous
 62
7
370
18
100
AcDbTrace
 10
53.6902303805
 20
277.9624811556
 30
0.0
 11
56.9922303805
 21
277.4544811556
 31
0.0
 12
56.9922303805
 22
278.4704811556
 32
0.0
 13
56.9922303805
 23
278.4704811556
 33
0.0
  0
LINE
  5
48
330
43
100
AcDbEntity
  8
0
  6
Continuous
 62
7
370
18
100
AcDbLine
 10
128.6902303805
 20
264.9624811556
 30
0.0
 11
128.6902303805
 21
278.9624811556
 31
0.0
  0
LINE
  5
49
330
43
100
AcDbEntity
  8
0
  6
Continuous
 62
7
370
18
100
AcDbLine
 10
53.6902303805
 20
264.9624811556
 30
0.0
 11
53.6902303805
 21
278.9624811556
 31
0.0
  0
LINE
  5
4A
330
43
100
AcDbEntity
  8
0
  6
Continuous
 62
7
370
18
100
AcDbLine
 10
128.6902303805
 20
277.9624811556
 30
0.0
 11
53.6902303805
 21
277.9624811556
 31
0.0
  0
MTEXT
  5
4B
330
43
100
AcDbEntity
  8
0
  6
Continuous
 62
7
370
18
100
AcDbMText
 10
88.604119187
 20
282.4742180702
 30
0.0
 40
3.5
 41
0.0
 71
1
  1
75
  7
SLDTEXTSTYLE0
  0
ENDBLK
  5
45
330
43
100
AcDbEntity
  8
0
100
AcDbBlockEnd
  0
BLOCK
  5
4E
330
4D
100
AcDbEntity
  8
0
100
AcDbBlockBegin
  2
*D3
 70
1
 10
0.0
 20
0.0
 30
0.0
  3
*D3
  1

  0
ARC
  5
50
330
4D
100
AcDbEntity
  8
0
  6
Continuous
 62
7
370
18
100
AcDbCircle
 10
153.6902303805
 20
267.9624811556
 30
0.0
 40
13.54414853077525
100
AcDbArc
 50
180.0
 51
-141.34019174590003
  0
ARC
  5
51
330
4D
100
AcDbEntity
  8
0
  6
Continuous
 62
7
370
18
100
AcDbCircle
 10
153.6902303805
 20
267.9624811556
 30
0.0
 40
13.54414853077525
100
AcDbArc
 50
140.5077546511
 51
180.0
  0
SOLID
  5
52
330
4D
100
AcDbEntity
  8
0
  6
Continuous
 62
7
370
18
100
AcDbTrace
 10
140.1460818498
 20
267.9624811556
 30
0.0
 11
140.03557310719998
 21
264.6234609673
 31
0.0
 12
141.044319464
 22
264.7446500245
 32
0.0
 13
141.044319464
 23
264.7446500245
 33
0.0
  0
SOLID
  5
53
330
4D
100
AcDbEntity
  8
0
  6
Continuous
 62
7
370
18
100
AcDbTrace
 10
143.1140272424
 20
259.50151864509996
 30
0.0
 11
141.8052698073
 21
262.5753471986
 31
0.0
 12
140.94186503679998
 22
262.03982110000004
 32
0.0
 13
140.94186503679998
 23
262.03982110000004
 33
0.0
  0
MTEXT
  5
54
330
4D
100
AcDbEntity
  8
0
  6
Continuous
 62
7
370
18
100
AcDbMText
 10
135.8329452739
 20
272.3804962507
 30
0.0
 40
3.5000000000000004
 41
0.0
 71
1
  1
39�
  7
SLDTEXTSTYLE0
 11
0.4214487906461676
 21
0.9068522023256507
 31
0.0
  0
ENDBLK
  5
4F
330
4D
100
AcDbEntity
  8
0
100
AcDbBlockEnd
  0
BLOCK
  5
58
330
57
100
AcDbEntity
  8
0
100
AcDbBlockBegin
  2
*D4
 70
1
 10
0.0
 20
0.0
 30
0.0
  3
*D4
  1

  0
SOLID
  5
5A
330
57
100
AcDbEntity
  8
0
  6
Continuous
 62
7
370
18
100
AcDbTrace
 10
171.2419649938
 20
266.5417678299
 30
0.0
 11
173.0996172272
 21
263.76500781510003
 31
0.0
 12
173.8483473018
 22
264.4517823599
 32
0.0
 13
173.8483473018
 23
264.4517823599
 33
0.0
  0
SOLID
  5
5B
330
57
100
AcDbEntity
  8
0
  6
Continuous
 62
7
370
18
100
AcDbTrace
 10
170.903985395
 20
266.91023735479996
 30
0.0
 11
169.0463331617
 21
269.6869973697
 31
0.0
 12
168.2976030871
 22
269.0002228248
 32
0.0
 13
168.2976030871
 23
269.0002228248
 33
0.0
  0
LINE
  5
5C
330
57
100
AcDbEntity
  8
0
  6
Continuous
 62
7
370
18
100
AcDbLine
 10
171.2419649938
 20
266.5417678299
 30
0.0
 11
175.5343058989
 21
261.86220486369996
 31
0.0
  0
LINE
  5
5D
330
57
100
AcDbEntity
  8
0
  6
Continuous
 62
7
370
18
100
AcDbLine
 10
171.2419649938
 20
266.5417678299
 30
0.0
 11
170.903985395
 21
266.91023735479996
 31
0.0
  0
LINE
  5
5E
330
57
100
AcDbEntity
  8
0
  6
Continuous
 62
7
370
18
100
AcDbLine
 10
170.903985395
 20
266.91023735479996
 30
0.0
 11
163.0693932513
 21
275.4516062866
 31
0.0
  0
MTEXT
  5
5F
330
57
100
AcDbEntity
  8
0
  6
Continuous
 62
7
370
18
100
AcDbMText
 10
166.3942683661
 20
278.5013563514
 30
0.0
 40
3.5
 41
0.0
 71
1
  1
0,5
  7
SLDTEXTSTYLE0
 11
0.675959197647059
 21
-0.7369390497974335
 31
0.0
  0
ENDBLK
  5
59
330
57
100
AcDbEntity
  8
0
100
AcDbBlockEnd
  0
ENDSEC
  0
SECTION
  2
ENTITIES
  0
LINE
  5
30
330
17
100
AcDbEntity
  8
0
  6
Continuous
 62
7
370
25
100
AcDbLine
 10
153.6902303805
 20
267.9624813456
 30
0.0
 11
128.69023000800001
 21
267.9624813456
 31
0.0
  0
LINE
  5
31
330
17
100
AcDbEntity
  8
0
  6
Continuous
 62
7
370
25
100
AcDbLine
 10
53.6902288904
 20
259.9624809656
 30
0.0
 11
143.6902306041
 21
259.9624809656
 31
0.0
  0
LWPOLYLINE
  5
32
330
17
100
AcDbEntity
  8
0
  6
Continuous
 62
7
370
25
100
AcDbPolyline
 90
31
 70
128
 10
143.6902306041
 20
259.9624809656
 10
143.717620801
 20
259.9843935888
 10
143.7994924372
 20
260.0498907115
 10
143.9349477177
 20
260.1582549825
 10
144.1225030457
 20
260.3082994312
 10
144.3601029923
 20
260.49837957470004
 10
144.6451454421
 20
260.7264132086
 10
144.974505808
 20
260.9899018273
 10
145.34457707759998
 20
261.2859587964
 10
145.7513042724
 20
261.61134008650004
 10
146.19023054820002
 20
261.9624810606
 10
146.6565470209
 20
262.3355345415
 10
147.1451453863
 20
262.7264131872
 10
147.6506719364
 20
263.1308343691
 10
148.1675880959
 20
263.5443672909
 10
148.6902304923
 20
263.9624811556
 10
149.2128728887
 20
264.3805950204
 10
149.7297890482
 20
264.7941279422
 10
150.2353153655
 20
265.1985491241
 10
150.723913498
 20
265.5894277698
 10
151.1902304364
 20
265.96248125060004
 10
151.6291567122
 20
266.3136222247
 10
152.0358834414
 20
266.63900351489997
 10
152.4059544781
 20
266.935060484
 10
152.7353153678
 20
267.1985491026
 10
153.0203574102
 20
267.4265827365
 10
153.2579576769
 20
267.61666288000004
 10
153.4455129758
 20
267.7667073287
 10
153.5809683873
 20
267.8750715997
 10
153.662839858
 20
267.94056872240003
 10
153.6902303805
 20
267.9624813456
  0
LINE
  5
33
330
17
100
AcDbEntity
  8
0
  6
Continuous
 62
7
370
25
100
AcDbLine
 10
128.69023000800001
 20
267.9624813456
 30
0.0
 11
128.69023000800001
 21
263.9624811556
 31
0.0
  0
LINE
  5
34
330
17
100
AcDbEntity
  8
0
  6
Continuous
 62
7
370
25
100
AcDbLine
 10
53.6902288904
 20
259.9624809656
 30
0.0
 11
53.6902288904
 21
263.9624811556
 31
0.0
  0
LINE
  5
35
330
17
100
AcDbEntity
  8
0
  6
Continuous
 62
7
370
25
100
AcDbLine
 10
128.69023000800001
 20
263.9624811556
 30
0.0
 11
53.6902288904
 21
263.9624811556
 31
0.0
  0
LINE
  5
36
330
17
100
AcDbEntity
  8
0
  6
HIDDEN
 62
7
370
18
100
AcDbLine
 10
153.0652303945
 20
267.4624812637
 30
0.0
 11
128.69023000800001
 21
267.4624812637
 31
0.0
  0
LINE
  5
37
330
17
100
AcDbEntity
  8
0
  6
HIDDEN
 62
7
370
18
100
AcDbLine
 10
53.6902288904
 20
260.4624810476
 30
0.0
 11
144.31523000800001
 21
260.4624810476
 31
0.0
  0
DIMENSION
  5
38
330
17
100
AcDbEntity
  8
0
  6
Continuous
 62
7
370
18
100
AcDbDimension
  2
*D1
  3
SLDDIMSTYLE0
 10
53.6902303805
 20
249.9624811556
 30
0.0
 11
103.6902303805
 21
249.9624811556
 31
0.0
 70
160
 71
2
 42
-1.0
  1
<>
100
AcDbAlignedDimension
 13
153.6902303805
 23
267.9624811556
 33
0.0
 14
53.6902303805
 24
259.9624811556
 34
0.0
 50
0.0
100
AcDbRotatedDimension
  0
DIMENSION
  5
42
330
17
100
AcDbEntity
  8
0
  6
Continuous
 62
7
370
18
100
AcDbDimension
  2
*D2
  3
SLDDIMSTYLE0
 10
53.6902303805
 20
277.9624811556
 30
0.0
 11
91.1902303805
 21
277.9624811556
 31
0.0
 70
160
 71
2
 42
-1.0
  1
<>
100
AcDbAlignedDimension
 13
128.6902303805
 23
263.9624811556
 33
0.0
 14
53.6902303805
 24
263.9624811556
 34
0.0
 50
0.0
100
AcDbRotatedDimension
  0
DIMENSION
  5
4C
330
17
100
AcDbEntity
  8
0
  6
Continuous
 62
7
370
18
100
AcDbDimension
  2
*D3
  3
SLDDIMSTYLE1
 10
153.6902303805
 20
267.9624811556
 30
0.0
 11
141.4076894568
 21
273.67064617430003
 31
0.0
 70
162
 71
1
 42
-1.0
  1
<>
100
AcDb2LineAngularDimension
 13
143.6902303805
 23
259.9624811556
 33
0.0
 14
153.6902303805
 24
267.9624811556
 34
0.0
 15
128.6902303805
 25
267.9624811556
 35
0.0
 16
140.909588268
 26
263.4792739761
 36
0.0
  0
POINT
  5
55
330
17
100
AcDbEntity
  8
0
  6
Continuous
 62
7
370
0
100
AcDbPoint
 10
173.6078221856
 20
259.9624811556
 30
0.0
  0
DIMENSION
  5
56
330
17
100
AcDbEntity
  8
0
  6
Continuous
 62
7
370
18
100
AcDbDimension
  2
*D4
  3
SLDDIMSTYLE4
 10
170.903985395
 20
266.91023735479996
 30
0.0
 11
165.2545251925
 21
273.0693485083
 31
0.0
 70
160
 71
2
 42
-1.0
  1
<>
100
AcDbAlignedDimension
 13
171.2419649938
 23
266.5417678299
 33
0.0
 14
170.903985395
 24
266.91023735479996
 34
0.0
 50
-47.471318225400005
100
AcDbRotatedDimension
  0
MTEXT
  5
60
330
17
100
AcDbEntity
  8
0
100
AcDbMText
 10
96.8039110928
 20
287.9624811556
 30
0.0
 40
5.0
 71
1
  1
Pos.63
  0
ENDSEC
  0
SECTION
  2
OBJECTS
  0
DICTIONARY
  5
A
330
0
100
AcDbDictionary
281
1
  3
ACAD_COLOR
350
B
  3
ACAD_GROUP
350
C
  3
ACAD_LAYOUT
350
D
  3
ACAD_MATERIAL
350
E
  3
ACAD_MLEADERSTYLE
350
F
  3
ACAD_MLINESTYLE
350
10
  3
ACAD_PLOTSETTINGS
350
11
  3
ACAD_PLOTSTYLENAME
350
12
  3
ACAD_SCALELIST
350
14
  3
ACAD_TABLESTYLE
350
15
  3
ACAD_VISUALSTYLE
350
16
  3
EZDXF_META
350
2D
  0
DICTIONARY
  5
B
330
A
100
AcDbDictionary
281
1
  0
DICTIONARY
  5
C
330
A
100
AcDbDictionary
281
1
  0
DICTIONARY
  5
D
330
A
100
AcDbDictionary
281
1
  3
Model
350
1A
  3
Layout1
350
1E
  0
DICTIONARY
  5
E
330
A
100
AcDbDictionary
281
1
  3
ByBlock
350
1F
  3
ByLayer
350
20
  3
Global
350
21
  0
DICTIONARY
  5
F
330
A
100
AcDbDictionary
281
1
  3
Standard
350
2C
  0
DICTIONARY
  5
10
330
A
100
AcDbDictionary
281
1
  3
Standard
350
22
  0
DICTIONARY
  5
11
330
A
100
AcDbDictionary
281
1
  0
ACDBDICTIONARYWDFLT
  5
12
330
A
100
AcDbDictionary
281
1
  3
Normal
350
13
100
AcDbDictionaryWithDefault
340
13
  0
ACDBPLACEHOLDER
  5
13
330
12
  0
DICTIONARY
  5
14
330
A
100
AcDbDictionary
281
1
  0
DICTIONARY
  5
15
330
A
100
AcDbDictionary
281
1
  0
DICTIONARY
  5
16
330
A
100
AcDbDictionary
281
1
  0
LAYOUT
  5
1A
330
D
100
AcDbPlotSettings
  1

  4
A3
  6

 40
7.5
 41
20.0
 42
7.5
 43
20.0
 44
420.0
 45
297.0
 46
0.0
 47
0.0
 48
0.0
 49
0.0
140
0.0
141
0.0
142
1.0
143
1.0
 70
1024
 72
1
 73
0
 74
5
  7

 75
16
 76
0
 77
2
 78
300
147
1.0
148
0.0
149
0.0
100
AcDbLayout
  1
Model
 70
1
 71
0
 10
0.0
 20
0.0
 11
420.0
 21
297.0
 12
0.0
 22
0.0
 32
0.0
 14
1e+20
 24
1e+20
 34
1e+20
 15
-1e+20
 25
-1e+20
 35
-1e+20
146
0.0
 13
0.0
 23
0.0
 33
0.0
 16
1.0
 26
0.0
 36
0.0
 17
0.0
 27
1.0
 37
0.0
 76
1
330
17
  0
LAYOUT
  5
1E
330
D
100
AcDbPlotSettings
  1

  4
A3
  6

 40
7.5
 41
20.0
 42
7.5
 43
20.0
 44
420.0
 45
297.0
 46
0.0
 47
0.0
 48
0.0
 49
0.0
140
0.0
141
0.0
142
1.0
143
1.0
 70
0
 72
1
 73
0
 74
5
  7

 75
16
 76
0
 77
2
 78
300
147
1.0
148
0.0
149
0.0
100
AcDbLayout
  1
Layout1
 70
1
 71
1
 10
0.0
 20
0.0
 11
420.0
 21
297.0
 12
0.0
 22
0.0
 32
0.0
 14
1e+20
 24
1e+20
 34
1e+20
 15
-1e+20
 25
-1e+20
 35
-1e+20
146
0.0
 13
0.0
 23
0.0
 33
0.0
 16
1.0
 26
0.0
 36
0.0
 17
0.0
 27
1.0
 37
0.0
 76
1
330
1B
  0
MATERIAL
  5
1F
102
{ACAD_REACTORS
330
E
102
}
330
E
100
AcDbMaterial
  1
ByBlock
  2

 70
0
 40
1.0
 71
1
 41
1.0
 91
-1023410177
 42
1.0
 72
1
  3

 73
1
 74
1
 75
1
 44
0.5
 73
0
 45
1.0
 46
1.0
 77
1
  4

 78
1
 79
1
170
1
 48
1.0
171
1
  6

172
1
173
1
174
1
140
1.0
141
1.0
175
1
  7

176
1
177
1
178
1
143
1.0
179
1
  8

270
1
271
1
272
1
145
1.0
146
1.0
273
1
  9

274
1
275
1
276
1
 42
1.0
 72
1
  3

 73
1
 74
1
 75
1
 94
63
  0
MATERIAL
  5
20
102
{ACAD_REACTORS
330
E
102
}
330
E
100
AcDbMaterial
  1
ByLayer
  2

 70
0
 40
1.0
 71
1
 41
1.0
 91
-1023410177
 42
1.0
 72
1
  3

 73
1
 74
1
 75
1
 44
0.5
 73
0
 45
1.0
 46
1.0
 77
1
  4

 78
1
 79
1
170
1
 48
1.0
171
1
  6

172
1
173
1
174
1
140
1.0
141
1.0
175
1
  7

176
1
177
1
178
1
143
1.0
179
1
  8

270
1
271
1
272
1
145
1.0
146
1.0
273
1
  9

274
1
275
1
276
1
 42
1.0
 72
1
  3

 73
1
 74
1
 75
1
 94
63
  0
MATERIAL
  5
21
102
{ACAD_REACTORS
330
E
102
}
330
E
100
AcDbMaterial
  1
Global
  2

 70
0
 40
1.0
 71
1
 41
1.0
 91
-1023410177
 42
1.0
 72
1
  3

 73
1
 74
1
 75
1
 44
0.5
 73
0
 45
1.0
 46
1.0
 77
1
  4

 78
1
 79
1
170
1
 48
1.0
171
1
  6

172
1
173
1
174
1
140
1.0
141
1.0
175
1
  7

176
1
177
1
178
1
143
1.0
179
1
  8

270
1
271
1
272
1
145
1.0
146
1.0
273
1
  9

274
1
275
1
276
1
 42
1.0
 72
1
  3

 73
1
 74
1
 75
1
 94
63
  0
MLINESTYLE
  5
22
102
{ACAD_REACTORS
330
10
102
}
330
10
100
AcDbMlineStyle
  2
Standard
 70
0
  3

 62
256
 51
90.0
 52
90.0
 71
2
 49
0.5
 62
256
  6
BYLAYER
 49
-0.5
 62
256
  6
BYLAYER
  0
MLEADERSTYLE
  5
2C
102
{ACAD_REACTORS
330
F
102
}
330
F
100
AcDbMLeaderStyle
179
2
170
2
171
1
172
0
 90
2
 40
0.0
 41
0.0
173
1
 91
-1056964608
 92
-2
290
1
 42
2.0
291
1
 43
8.0
  3
Standard
 44
4.0
300

342
29
174
1
175
1
176
0
178
1
 93
-1056964608
 45
4.0
292
0
297
0
 46
4.0
 94
-1056964608
 47
1.0
 49
1.0
140
1.0
294
1
141
0.0
177
0
142
1.0
295
0
296
0
143
3.75
271
0
272
9
273
9
  0
DICTIONARY
  5
2D
330
A
100
AcDbDictionary
280
1
281
1
  3
CREATED_BY_EZDXF
350
2E
  3
WRITTEN_BY_EZDXF
350
63
  0
DICTIONARYVAR
  5
2E
330
2D
100
DictionaryVariables
280
0
  1
1.4.3 @ 2026-04-08T20:43:54.643736+00:00
  0
DICTIONARYVAR
  5
63
330
2D
100
DictionaryVariables
280
0
  1
1.4.3 @ 2026-04-08T20:43:54.645461+00:00
  0
ENDSEC
  0
EOF
